<?xml version="1.0" standalone="no"?>
<svg version="1.0" xmlns="http://www.w3.org/2000/svg"
     width="52pt" height="52pt" viewBox="0 0 562.000000 459.000000"
     preserveAspectRatio="xMidYMid meet">

    <g transform="translate(0.000000,459.000000) scale(0.100000,-0.100000)"
       fill="#000000" stroke="none">
        <path d="M4552 4465 c3 -3 38 -15 77 -25 98 -25 121 -41 121 -86 0 -32 4 -37
40 -51 37 -15 40 -19 40 -54 0 -29 6 -42 28 -58 16 -13 19 -18 8 -15 -15 6
-17 3 -12 -14 6 -18 2 -21 -26 -24 -30 -3 -33 -6 -32 -33 0 -16 4 -38 8 -48 6
-13 5 -16 -8 -11 -20 8 -39 -39 -33 -81 2 -17 -2 -35 -9 -43 -18 -18 -18 -64
1 -109 12 -28 13 -39 3 -50 -17 -21 -64 -43 -92 -43 -22 0 -26 -6 -33 -47 -11
-68 -7 -160 10 -215 14 -43 13 -50 -4 -80 -42 -76 -51 -105 -52 -164 -1 -71
23 -120 68 -144 17 -8 36 -24 44 -34 33 -45 53 -58 79 -53 20 4 35 -5 72 -39
26 -24 56 -44 67 -44 25 0 53 -40 53 -74 0 -14 4 -28 10 -31 5 -3 19 -27 30
-53 27 -61 46 -80 86 -88 24 -4 36 -14 45 -35 6 -17 21 -36 31 -44 17 -11 19
-20 13 -54 -4 -25 -3 -41 3 -41 6 0 12 6 15 13 3 9 7 9 20 -1 11 -9 21 -11 33
-4 21 12 55 4 71 -16 11 -13 15 -13 30 -1 15 12 16 12 10 -4 -6 -15 -3 -18 15
-15 19 3 57 51 71 92 2 5 13 2 25 -5 20 -12 24 -12 32 1 8 13 11 12 24 -5 15
-19 15 -18 16 21 0 28 -6 46 -19 58 -18 17 -20 16 -27 -6 l-8 -23 -7 25 c-16
56 -9 130 16 179 23 47 24 53 14 138 -11 104 -25 155 -80 297 -27 68 -54 120
-78 148 -21 24 -45 57 -54 75 -16 29 -54 184 -78 311 -5 30 -18 71 -28 91 -11
20 -24 63 -30 95 -11 62 -62 154 -106 196 -15 14 -36 43 -47 65 -29 57 -90
135 -105 135 -8 0 -16 6 -19 14 -3 7 -48 35 -100 62 -85 43 -104 49 -172 52
-42 2 -74 1 -70 -3z"/>
        <path d="M2740 4180 c-14 -4 -53 -8 -87 -9 -59 -1 -65 -3 -121 -51 -77 -63
-106 -103 -98 -135 5 -20 0 -29 -29 -47 -39 -26 -44 -51 -19 -99 26 -52 16
-79 -47 -121 -76 -50 -91 -88 -82 -206 5 -67 12 -95 30 -123 13 -19 30 -67 38
-104 l14 -70 -28 -45 c-15 -25 -46 -77 -69 -117 -26 -43 -63 -90 -97 -118 -42
-36 -56 -55 -61 -83 -3 -21 -22 -72 -41 -116 -36 -79 -52 -170 -39 -220 9 -37
51 -34 135 9 79 41 106 44 115 13 12 -45 7 -58 -19 -58 -33 0 -78 -21 -139
-65 -26 -19 -57 -35 -68 -35 -11 0 -34 -11 -52 -25 -18 -14 -37 -25 -42 -25
-28 0 -84 -64 -109 -127 -15 -37 -34 -85 -43 -106 -21 -52 -9 -82 53 -129 28
-21 54 -47 59 -58 13 -28 22 -25 66 22 l40 41 40 -59 c22 -32 40 -64 40 -70 0
-6 14 -28 30 -49 32 -40 40 -85 16 -85 -8 0 -18 10 -22 22 -4 13 -34 51 -67
85 -60 62 -90 76 -114 52 -18 -18 -41 -3 -59 35 -21 43 -51 57 -137 64 -56 4
-71 2 -88 -14 -20 -18 -21 -17 -74 40 -31 33 -55 68 -55 80 0 27 -36 86 -53
86 -7 0 -18 -5 -25 -12 -7 -7 -12 -9 -12 -4 0 79 -72 322 -130 436 -16 32 -32
78 -36 102 -11 70 -34 87 -57 41 l-14 -26 -7 46 c-8 50 -25 71 -49 61 -40 -15
-23 -139 21 -159 12 -5 20 -15 18 -21 -3 -7 -7 -65 -11 -130 -6 -113 -8 -120
-34 -144 -15 -14 -47 -62 -71 -107 -43 -81 -45 -83 -81 -83 -21 0 -39 -6 -42
-12 -6 -17 -7 -15 -54 64 -33 54 -41 80 -46 137 -11 108 -24 126 -52 71 -9
-16 -19 -30 -23 -30 -11 0 -35 200 -33 272 2 36 -3 65 -13 80 -13 20 -58 199
-52 205 1 2 13 -16 26 -40 33 -60 60 -87 87 -87 32 0 29 21 -12 81 -35 51 -51
98 -75 212 -6 32 -22 70 -36 86 -13 16 -33 49 -43 75 -19 44 -28 51 -59 47 -8
-1 -22 5 -32 14 -27 25 -74 16 -78 -14 -5 -33 21 -51 75 -51 36 0 44 -4 57
-27 12 -23 12 -33 0 -66 -18 -51 -18 -72 2 -88 8 -7 24 -30 35 -51 16 -32 17
-37 3 -31 -26 10 -33 -16 -19 -66 7 -25 16 -64 20 -86 4 -22 24 -77 45 -121
25 -54 35 -86 29 -95 -5 -8 -9 -31 -9 -51 0 -21 -5 -38 -10 -38 -6 0 -29 38
-50 85 -21 47 -44 85 -50 85 -5 0 -10 -4 -10 -8 0 -5 -17 -28 -37 -52 -36 -41
-37 -46 -38 -119 0 -68 4 -84 38 -151 38 -77 45 -116 27 -151 -20 -37 -30 -20
-23 41 4 47 2 65 -11 85 -15 22 -20 24 -33 14 -11 -10 -14 -25 -9 -59 13 -101
15 -93 -33 -102 -56 -10 -66 -19 -86 -79 -9 -28 -28 -70 -42 -95 -23 -40 -25
-54 -20 -109 3 -34 18 -92 33 -129 26 -66 26 -67 8 -101 -15 -28 -16 -38 -6
-59 7 -15 20 -26 32 -26 11 0 27 -12 36 -26 16 -24 16 -26 -4 -47 l-22 -21 0
21 c0 25 -25 49 -35 33 -13 -21 -23 -8 -29 40 -4 33 -11 50 -21 50 -17 0 -24
23 -23 73 0 45 -18 73 -38 56 -23 -19 -26 -66 -9 -126 10 -32 18 -83 19 -113
1 -47 12 -77 82 -215 212 -423 547 -802 932 -1057 57 -37 107 -68 112 -68 4 0
28 9 54 20 37 17 53 19 81 11 37 -10 60 3 34 20 -8 5 -10 9 -6 9 4 0 19 -7 32
-16 28 -18 55 -13 55 11 0 22 17 18 23 -5 6 -23 32 -27 41 -5 3 8 -4 36 -15
61 -18 44 -18 48 -3 65 10 11 22 19 27 19 6 0 3 -8 -6 -18 -21 -23 -21 -41 -2
-66 8 -11 15 -30 15 -41 0 -23 19 -44 57 -64 20 -10 28 -7 64 26 l41 37 -34
28 c-41 34 -34 35 38 3 65 -29 110 -32 135 -9 13 12 25 13 51 6 19 -5 47 -5
66 0 20 5 39 5 52 -2 12 -7 27 -7 38 -2 31 17 112 21 112 6 0 -16 34 -27 60
-19 13 4 20 15 20 31 0 27 24 33 37 9 5 -8 35 -20 68 -26 33 -6 96 -22 140
-35 102 -31 217 -32 333 -4 104 25 107 27 179 99 33 33 87 73 122 91 80 40
111 70 111 108 0 48 -20 92 -45 98 -21 5 -22 7 -9 32 8 15 14 37 14 49 0 13 8
24 22 29 12 3 44 24 71 46 l50 39 21 -34 c12 -19 31 -49 44 -68 14 -21 21 -44
19 -62 -3 -21 3 -33 21 -47 24 -19 24 -19 75 10 44 26 52 34 52 60 0 23 6 32
27 41 59 24 113 113 91 148 -16 26 -46 24 -88 -8 l-40 -29 -10 31 c-11 34 -22
37 -82 23 -52 -12 -39 9 18 30 29 11 58 29 66 41 14 21 13 23 -24 40 -34 17
-38 22 -37 56 2 58 15 67 106 67 70 0 82 3 103 25 20 19 25 34 25 78 0 31 6
61 15 73 31 42 6 114 -40 114 -15 0 -29 9 -36 21 -10 19 -5 27 49 78 61 57 82
99 82 163 0 21 9 34 39 52 49 31 67 57 126 181 47 98 47 101 40 165 -12 99 -9
125 20 174 19 33 25 53 21 78 -3 18 -8 51 -11 73 -4 31 -15 49 -50 80 -25 23
-53 61 -64 87 -23 54 -112 170 -150 194 -23 16 -25 16 -44 -7 -18 -22 -27 -24
-106 -24 -80 0 -89 -2 -135 -32 -28 -18 -58 -33 -67 -33 -20 0 -50 35 -69 79
-17 41 -45 48 -82 21 l-30 -22 -21 20 c-18 18 -19 25 -9 64 6 24 13 73 16 110
l5 67 -49 58 c-59 69 -106 153 -115 208 -4 22 -18 59 -31 82 -30 52 -30 61 1
103 31 42 33 107 6 165 -10 22 -48 80 -84 128 -58 77 -87 134 -87 174 0 7 -23
31 -51 55 -28 24 -61 64 -75 90 -34 66 -82 94 -134 78z m-162 -1137 c-2 -27
-8 -39 -20 -41 -21 -4 -24 27 -8 59 17 31 31 22 28 -18z m-168 -801 c24 -59
113 -279 177 -439 3 -8 -3 -13 -15 -13 -15 0 -25 12 -37 48 -10 26 -28 70 -41
97 -12 28 -30 74 -39 102 -9 29 -37 81 -62 115 -56 76 -69 107 -78 183 l-6 60
34 -38 c19 -21 49 -73 67 -115z m736 -623 c22 -17 62 -41 89 -53 63 -29 81
-48 60 -66 -21 -18 -19 -69 6 -109 17 -28 24 -32 47 -27 15 4 63 10 108 15 73
7 89 12 165 59 47 29 95 52 108 52 35 0 20 -22 -26 -37 -61 -21 -113 -75 -113
-119 0 -30 -6 -38 -44 -62 -24 -15 -50 -40 -58 -57 -12 -27 -17 -30 -53 -27
-31 2 -45 -2 -59 -17 -28 -31 -52 -26 -73 17 -14 28 -33 44 -76 65 -76 37
-111 103 -41 77 37 -15 74 -5 74 19 0 21 -54 81 -74 81 -16 0 -36 -21 -36 -38
0 -8 -11 -25 -25 -38 -14 -13 -25 -32 -25 -42 0 -10 -9 -27 -20 -37 -19 -17
-20 -17 -45 36 -14 30 -25 61 -25 69 0 19 -28 60 -40 60 -16 0 -72 -53 -81
-78 -7 -18 -5 -31 7 -49 14 -23 14 -26 -2 -44 -27 -30 -34 -23 -34 32 0 48 -3
54 -47 95 l-47 43 -98 -2 -98 -3 0 26 c0 40 28 125 49 152 19 22 20 23 49 6
25 -15 35 -16 62 -6 28 9 34 8 42 -6 7 -12 24 -16 71 -16 46 0 68 -5 87 -20
38 -30 59 -24 108 30 25 28 51 50 57 50 7 0 30 -14 51 -31z m-1044 -211 c37
-11 88 -57 88 -80 0 -5 -13 -22 -30 -36 -38 -33 -38 -57 -1 -77 35 -18 76 -69
92 -114 15 -43 -11 -86 -47 -77 -17 5 -36 -1 -61 -18 -41 -28 -61 -23 -89 19
-24 37 -13 57 24 43 33 -13 60 -6 68 17 6 14 -17 48 -73 110 -12 14 -19 32
-17 42 3 10 -4 40 -15 67 -32 73 -27 112 13 115 5 1 26 -4 48 -11z m440 -214
c35 -18 96 -17 128 1 14 8 44 14 66 15 37 0 42 -3 47 -27 3 -18 -3 -37 -23
-64 -15 -21 -33 -52 -40 -69 -17 -41 -36 -38 -60 10 -26 51 -49 51 -89 3 -25
-31 -30 -34 -31 -18 0 13 -19 32 -51 53 -44 29 -95 89 -84 100 2 2 19 8 37 12
36 8 59 5 100 -16z m599 -4 c31 -23 74 -78 66 -86 -7 -7 -85 63 -98 88 -13 23
-4 23 32 -2z m534 -369 c-3 -12 -13 -21 -21 -21 -18 0 -18 9 3 32 20 22 27 17
18 -11z m-479 -81 c21 0 34 -5 34 -13 0 -9 -11 -12 -35 -9 -44 5 -121 -31
-131 -61 -4 -12 -17 -36 -30 -53 -28 -37 -31 -69 -7 -83 21 -11 18 -16 -29
-35 l-35 -15 -12 38 c-15 50 -32 64 -63 52 -25 -10 -69 -14 -103 -11 l-20 1
20 9 c11 5 38 9 60 9 48 1 70 14 62 35 -5 12 0 16 18 16 32 0 64 32 72 70 5
27 9 30 47 30 22 1 52 7 66 15 14 8 31 12 38 10 8 -3 29 -5 48 -5z m64 -90 c0
-4 -7 -13 -15 -20 -9 -8 -15 -8 -15 -2 0 6 -3 17 -6 25 -4 12 0 14 15 10 12
-3 21 -9 21 -13z m-580 -130 c0 -5 -2 -10 -4 -10 -3 0 -8 5 -11 10 -3 6 -1 10
4 10 6 0 11 -4 11 -10z m240 -100 c-6 -12 -21 -20 -35 -20 -32 0 -31 6 3 24
37 21 45 20 32 -4z m-379 -20 c50 0 32 -15 -21 -17 -47 -2 -60 4 -43 21 4 3
13 4 21 1 7 -3 27 -5 43 -5z m-951 -50 c0 -13 -7 -13 -31 1 -11 5 -17 14 -14
20 7 11 45 -7 45 -21z m-140 -25 c7 -9 8 -15 2 -15 -5 0 -12 7 -16 15 -3 8 -4
15 -2 15 2 0 9 -7 16 -15z"/>
        <path d="M3333 1318 c-28 -36 -18 -88 17 -88 26 0 45 40 36 74 -7 28 -36 35
-53 14z"/>
        <path d="M3507 1323 c-13 -13 -7 -53 8 -53 17 0 39 36 30 50 -7 11 -28 13 -38
3z"/>
        <path d="M633 4146 c-15 -13 -38 -26 -51 -30 -12 -4 -34 -23 -48 -42 -15 -19
-32 -34 -39 -34 -7 0 -23 -9 -37 -20 -19 -14 -28 -16 -36 -8 -7 7 -13 10 -16
7 -15 -16 -114 -205 -158 -299 -45 -99 -53 -125 -55 -185 -1 -38 -4 -81 -5
-95 -2 -14 1 -26 6 -27 5 -1 13 -7 18 -15 8 -10 11 -10 15 0 2 6 8 10 13 7 4
-3 11 6 14 20 3 13 11 37 17 52 9 25 11 26 20 10 14 -24 25 -15 48 39 11 24
27 47 35 50 8 3 21 23 30 44 10 26 27 45 48 56 69 35 128 107 128 158 0 14 8
47 19 73 10 26 21 73 25 104 5 41 14 63 32 80 14 13 24 34 24 51 0 34 -10 35
-47 4z"/>
        <path d="M2054 3952 c-16 -10 -32 -43 -43 -88 -5 -22 -21 -84 -36 -139 -30
-115 -27 -170 10 -213 21 -24 25 -25 39 -12 9 9 26 36 38 60 15 30 36 52 62
67 53 29 61 45 43 96 -10 30 -11 50 -4 71 6 19 6 41 -2 66 -6 20 -11 47 -11
58 0 33 -64 56 -96 34z"/>
        <path d="M290 3358 c-24 -39 -26 -68 -5 -68 15 0 26 20 39 73 9 37 -10 35 -34
-5z"/>
        <path d="M367 3383 c-10 -10 -8 -53 2 -53 8 0 20 32 21 53 0 9 -14 9 -23 0z"/>
        <path d="M96 3279 c-31 -119 -45 -191 -40 -204 6 -16 46 -27 68 -19 9 3 20 -3
28 -15 20 -32 38 -26 38 13 0 19 -4 37 -10 41 -6 4 -6 15 0 31 9 22 6 30 -20
54 -32 29 -37 58 -19 92 7 12 7 23 2 27 -5 3 -14 14 -20 25 -8 15 -13 8 -27
-45z"/>
        <path d="M287 3178 c-2 -35 -6 -72 -8 -83 -6 -29 45 -34 60 -6 17 31 26 111
12 111 -6 0 -11 -4 -11 -10 0 -5 -4 -10 -10 -10 -5 0 -10 14 -10 30 0 19 -5
30 -14 30 -10 0 -16 -17 -19 -62z"/>
        <path d="M391 3162 c-6 -12 -11 -34 -11 -50 0 -17 -11 -53 -24 -82 -20 -43
-22 -57 -14 -86 7 -28 6 -41 -7 -61 -12 -18 -14 -28 -6 -36 6 -6 11 -24 11
-39 0 -37 24 -37 39 0 26 64 80 132 114 145 28 11 20 156 -11 204 -4 6 -24 14
-44 18 -30 6 -38 4 -47 -13z"/>
        <path d="M195 3008 c-18 -61 -18 -58 -5 -58 12 0 24 29 33 78 10 52 -11 37
-28 -20z"/>
        <path d="M290 3040 c-8 -5 -23 -11 -33 -14 -25 -8 -19 -52 6 -48 9 1 25 3 35
5 23 3 35 23 27 47 -7 22 -12 23 -35 10z"/>
        <path d="M220 2815 c-17 -21 -18 -87 -1 -119 13 -23 12 -28 -2 -44 -21 -23
-21 -42 -2 -68 13 -18 14 -18 21 12 4 21 12 31 22 30 12 -1 18 9 20 32 3 27
-1 35 -17 39 -12 3 -21 10 -21 16 0 6 3 7 7 4 9 -10 43 23 43 42 -1 14 -43 71
-53 71 -3 0 -10 -7 -17 -15z"/>
        <path d="M281 2605 c-7 -19 -21 -40 -32 -45 -24 -14 -24 -38 1 -65 17 -18 18
-25 8 -63 -8 -32 -8 -50 1 -68 12 -28 31 -24 31 7 0 11 7 34 16 52 16 29 15
35 -1 83 -16 47 -16 53 -1 82 19 38 20 52 3 52 -7 0 -19 -16 -26 -35z"/>
        <path d="M5533 2415 c0 -27 2 -38 4 -22 2 15 2 37 0 50 -2 12 -4 0 -4 -28z"/>
        <path d="M5436 2314 c-10 -25 -7 -34 9 -34 9 0 15 9 15 25 0 28 -15 34 -24 9z"/>
        <path d="M5254 2275 c-7 -18 2 -45 15 -45 12 0 24 37 16 50 -9 15 -25 12 -31
-5z"/>
        <path d="M5307 2283 c-12 -12 -7 -60 8 -73 21 -17 45 -9 69 23 21 28 21 29 2
43 -21 15 -68 19 -79 7z"/>
        <path d="M298 2224 c-23 -26 -42 -104 -29 -117 25 -25 57 43 49 108 -3 26 -4
27 -20 9z"/>
        <path d="M5407 2223 c-16 -15 -5 -41 32 -77 45 -44 66 -43 73 3 4 28 2 31 -22
31 -19 0 -30 7 -38 25 -11 24 -31 32 -45 18z"/>
        <path d="M5415 2089 c-8 -23 -1 -34 14 -24 13 8 15 45 2 45 -5 0 -13 -9 -16
-21z"/>
        <path d="M5455 2013 c-10 -103 -18 -125 -73 -196 -28 -36 -53 -81 -57 -99 -4
-18 -13 -40 -20 -48 -7 -8 -21 -34 -30 -57 -10 -24 -23 -43 -31 -43 -24 0 -54
-39 -54 -69 0 -20 -8 -34 -27 -46 -18 -12 -28 -14 -31 -7 -6 18 -27 14 -48 -9
-10 -12 -36 -30 -57 -41 -21 -10 -42 -29 -46 -41 -14 -37 7 -78 23 -44 5 9 7
9 12 -1 3 -6 10 -10 15 -6 13 8 11 -10 -3 -28 -7 -8 -37 -37 -67 -64 l-54 -49
26 46 c32 54 36 85 10 74 -10 -4 -38 -12 -63 -19 -44 -11 -45 -12 -48 -53 -3
-38 -1 -43 17 -43 26 0 27 -14 2 -49 -30 -42 -29 -57 11 -93 25 -24 39 -47 44
-74 10 -60 15 -61 56 -13 29 34 40 41 47 30 6 -10 22 6 58 60 126 188 277 478
259 496 -2 3 -16 -3 -30 -12 -14 -10 -26 -13 -26 -7 0 6 6 15 14 19 22 13 84
106 110 164 32 74 98 322 94 356 -2 14 -8 28 -15 30 -7 3 -14 -19 -18 -64z
m-390 -763 c-17 -19 -35 -19 -35 0 0 5 6 7 14 4 8 -3 17 -1 21 5 3 6 9 11 12
11 3 0 -2 -9 -12 -20z"/>
        <path d="M150 1905 c0 -9 -7 -18 -15 -21 -19 -8 -19 -51 0 -98 15 -36 35 -49
35 -22 0 7 7 20 16 27 17 14 13 73 -7 110 -12 23 -29 25 -29 4z"/>
        <path d="M4916 872 c-31 -19 -52 -57 -35 -67 5 -4 22 8 37 26 52 61 51 72 -2
41z"/>
        <path d="M4557 790 c-14 -16 -28 -39 -32 -49 -3 -11 -17 -26 -30 -35 -14 -9
-25 -25 -25 -36 0 -24 -45 -56 -92 -65 -26 -5 -45 -18 -63 -41 -14 -19 -31
-34 -38 -34 -16 0 -152 -70 -202 -104 -28 -19 -41 -36 -45 -58 -4 -25 -12 -34
-40 -43 -23 -7 -41 -22 -51 -43 -9 -17 -22 -39 -29 -47 -7 -8 -10 -21 -7 -29
8 -19 -49 -71 -113 -104 -30 -15 -56 -35 -58 -44 -5 -25 24 -23 86 7 59 29 82
31 82 10 0 -8 3 -15 6 -15 16 0 258 128 342 181 170 107 378 272 366 290 -3 5
4 9 15 9 35 0 54 43 59 135 4 78 2 87 -20 112 -34 40 -79 42 -111 3z m-447
-390 c0 -5 -4 -10 -10 -10 -5 0 -10 5 -10 10 0 6 5 10 10 10 6 0 10 -4 10 -10z"/>
        <path d="M4825 757 c-29 -29 -47 -67 -31 -67 10 0 78 91 73 97 -4 3 -22 -10
-42 -30z"/>
        <path d="M3939 571 c-13 -10 -43 -28 -66 -40 -80 -40 -42 -89 43 -56 27 10 55
14 70 11 38 -10 74 17 74 54 0 25 -4 30 -24 30 -14 0 -28 5 -31 10 -10 16 -40
12 -66 -9z"/>
        <path d="M2046 274 c-4 -10 1 -25 10 -35 15 -16 14 -19 -17 -34 -24 -13 -56
-17 -124 -16 -70 1 -95 -2 -104 -13 -7 -8 -10 -19 -7 -24 3 -5 61 -8 128 -7
127 1 135 4 248 64 32 17 16 42 -40 62 -66 23 -86 24 -94 3z"/>
    </g>
</svg>
